<svg class="[object Object]" version="1.1" xmlns="http://www.w3.org/2000/svg" xmlns:xlink="http://www.w3.org/1999/xlink"
  width="100" height="160" style=" translate(-50%, -50%);">
  <g class="[object Object]" data-noun-id="36991" data-attribution="" transform="scale(1.023490813320373)"
    style="transform: translate(25px, 25px) scale(1.02349);">
    <g>
      <g>
        <path
          d="M50.741,17.74c0.93,3.92,0.689,8.93-0.771,12.57c-1.359,3.35-3.58,5.93-6.01,8.48c-2.39,2.53-4.9,4.95-7.24,7.24    c-3.67,3.6-7.569,6.74-10.91,10.82c-1.07,1.29-2.53,3.021-2.85,4.7c-0.28,1.48-0.27,3.271-0.41,4.97    c-0.11,1.211-0.2,2.471-0.31,3.73c-0.04,0.42-0.02,0.94-0.11,1.24c-0.14,0.479-0.76,0.899-1.19,1.39c-0.08,0.101-1,1.38-1.19,1.4    c-0.21,0.02-0.77-0.67-1.08-0.931c-0.44-0.369-0.91-0.55-1.04-0.93c-0.2-0.61-0.14-2.08-0.2-2.85    c-1.12-13.98-2.04-28.4-3.16-42.21c3.08-1.22,6.21-2.38,9.26-3.62c0.84,0,1.69,0,2.53,0c-0.69,10.15-1.82,19.87-2.63,29.899    c2.94-4.57,6.87-8.05,9.98-12.62c2.96-4.35,6.189-9.61,5.38-17.02c-0.71-6.57-4.45-10.84-9.88-12.83    c-4.92-1.81-12.42-1.61-16.81,0.62c-0.61,0.3-1.36,0.63-1.76,1.03c-0.31,0.31-0.54,0.89-0.83,1.35c-1.36,2.17-2.66,4.49-3.93,6.77    c-0.49,0.88-0.9,1.92-1.81,2.43c-0.72-0.14-1.5-0.22-2.12-0.46c-0.63-0.81-0.08-1.62,0.26-2.64c1.45-4.38,3-9.08,4.39-13.29    c4.65-3.14,10.04-5.35,17.39-5.7c5.05-0.23,9.15,0.53,12.72,1.82c3.479,1.25,6.67,3.1,9.05,5.43    C47.77,10.78,49.831,13.86,50.741,17.74z"
          transform="translate(-1.3618468046188354,-1.2371760606765747)" fill="#000000"></path>
        <path
          d="M26.17,85.2c1.4,1.39,2.6,3.5,2.38,6.51c-0.35,4.78-5.07,8.19-10.04,6.99c-3.09-0.75-5.84-3.42-6.1-7.09    c-0.29-4.011,1.73-6.351,4.08-7.71c0.88-0.5,1.75-0.86,3.06-0.98C22.53,82.65,24.61,83.63,26.17,85.2z"
          transform="translate(-1.3618468046188354,-1.2371760606765747)" fill="#000000"></path>
      </g>
    </g>
  </g>
</svg>