<?xml version="1.0" standalone="no"?>
<!DOCTYPE svg PUBLIC "-//W3C//DTD SVG 20010904//EN"
 "http://www.w3.org/TR/2001/REC-SVG-20010904/DTD/svg10.dtd">
<svg version="1.0" xmlns="http://www.w3.org/2000/svg"
 width="2000.000000pt" height="919.000000pt" viewBox="0 0 2000.000000 919.000000"
 preserveAspectRatio="xMidYMid meet">

<g transform="translate(0.000000,919.000000) scale(0.100000,-0.100000)"
fill="#000000" stroke="none">
<path d="M3045 7085 c-246 -35 -434 -100 -642 -224 l-68 -40 -123 -370 c-68
-204 -122 -381 -120 -393 4 -28 41 -48 90 -48 44 0 66 24 128 137 109 201 225
385 254 403 52 31 179 78 257 94 109 22 280 30 389 17 229 -26 384 -95 520
-231 160 -159 231 -364 217 -618 -18 -301 -144 -547 -499 -972 -90 -107 -185
-225 -212 -262 -27 -37 -50 -67 -51 -65 -2 2 16 208 50 567 29 309 75 852 75
886 0 22 -4 24 -55 24 -45 0 -95 -16 -290 -92 -171 -66 -235 -96 -235 -107 0
-9 22 -306 49 -661 27 -355 64 -851 83 -1103 l33 -459 54 -46 54 -46 19 25
c10 13 36 44 57 69 42 50 39 30 66 377 11 147 17 181 40 230 53 116 164 235
695 743 361 346 512 521 591 685 70 145 83 213 83 430 -1 162 -4 201 -22 268
-60 217 -204 417 -393 548 -142 97 -375 191 -558 225 -120 22 -409 27 -536 9z"/>
<path d="M16614 6284 c-58 -29 -134 -55 -215 -75 -139 -34 -170 -53 -151 -93
8 -19 24 -27 68 -37 31 -7 70 -24 87 -38 64 -54 62 -17 65 -876 3 -801 -2
-972 -34 -1038 -23 -48 -53 -60 -131 -51 -53 5 -67 4 -83 -11 -26 -23 -25 -50
1 -76 21 -21 27 -22 148 -14 161 11 298 11 433 0 92 -7 110 -6 132 9 18 11 26
25 26 46 0 41 -28 54 -97 45 -111 -14 -122 18 -130 356 l-5 235 63 57 63 57
100 -152 c56 -84 165 -250 242 -368 78 -118 157 -231 176 -250 l34 -35 215 -2
c232 -1 259 4 259 51 0 35 -16 43 -108 54 -61 7 -93 17 -122 36 -30 20 -100
117 -309 430 -149 223 -272 409 -273 414 -2 4 71 73 162 153 293 257 329 282
436 303 38 8 77 17 86 21 35 14 32 61 -6 74 -34 13 -595 6 -607 -6 -23 -23 -1
-59 51 -87 56 -30 67 -47 54 -76 -5 -10 -121 -125 -259 -257 l-250 -238 -3
628 c-2 549 0 637 14 700 26 115 28 138 13 148 -25 16 -53 9 -145 -37z"/>
<path d="M13805 6238 c-71 -37 -178 -79 -268 -103 -102 -28 -119 -39 -115 -74
3 -22 12 -29 62 -46 69 -24 90 -47 111 -130 13 -50 15 -170 15 -815 0 -468 -4
-787 -10 -839 -18 -141 -44 -167 -156 -156 -55 6 -64 5 -83 -14 -22 -22 -22
-53 1 -76 5 -6 63 -9 146 -6 231 6 332 5 449 -3 129 -10 167 -1 178 42 5 21 1
31 -16 45 -19 16 -34 18 -89 13 -84 -8 -108 4 -135 69 -20 49 -20 69 -20 985
0 874 1 940 18 1006 24 95 21 118 -18 121 -16 2 -48 -7 -70 -19z"/>
<path d="M8906 6204 c-200 -44 -344 -149 -421 -308 -43 -89 -57 -172 -45 -274
15 -127 55 -217 149 -333 100 -124 205 -210 498 -402 224 -148 313 -229 365
-334 29 -60 33 -77 33 -148 0 -69 -4 -86 -27 -127 -71 -120 -218 -188 -404
-188 -151 1 -278 61 -397 190 -67 72 -84 103 -123 223 -31 95 -50 123 -90 133
-64 16 -71 -45 -25 -217 17 -63 40 -164 51 -224 16 -91 24 -114 45 -132 33
-29 187 -78 311 -99 186 -32 434 -3 578 66 131 62 246 186 281 303 78 256 14
471 -202 678 -74 71 -132 115 -373 278 -239 163 -317 226 -375 303 -150 200
-64 428 185 489 77 19 241 16 315 -5 123 -36 164 -76 255 -254 45 -88 69 -105
116 -83 29 13 31 48 9 143 -8 35 -19 106 -25 158 -14 120 -23 131 -99 124 -44
-4 -74 0 -141 22 -73 23 -106 27 -230 30 -104 2 -164 -1 -214 -12z"/>
<path d="M5416 6189 c-27 -22 -34 -57 -14 -77 7 -7 43 -12 94 -12 67 0 86 -4
108 -21 41 -32 64 -88 75 -180 6 -46 11 -425 13 -844 2 -615 0 -771 -11 -820
-31 -136 -73 -172 -186 -160 -50 6 -65 4 -78 -10 -25 -25 -21 -62 8 -81 27
-17 110 -16 322 4 40 4 112 4 160 0 255 -21 311 -22 338 -4 27 18 35 68 13 83
-7 4 -49 8 -93 8 -100 0 -127 15 -161 90 -38 82 -43 197 -45 978 -1 744 2 810
42 889 26 52 63 68 152 68 80 0 97 9 97 51 0 59 -51 68 -272 44 -152 -16 -172
-16 -302 -1 -187 22 -227 21 -260 -5z"/>
<path d="M14869 6130 c-88 -15 -139 -76 -139 -166 0 -36 6 -60 23 -84 39 -58
69 -74 140 -74 80 0 127 26 156 88 65 133 -33 261 -180 236z"/>
<path d="M10440 6123 c-65 -25 -100 -79 -101 -158 -2 -116 95 -186 213 -155
139 37 170 223 52 301 -29 19 -127 26 -164 12z"/>
<path d="M10990 6108 c-53 -37 -73 -71 -78 -135 -3 -48 0 -64 20 -92 40 -59
70 -75 140 -75 110 1 169 52 176 153 4 68 -17 115 -67 148 -48 32 -144 32
-191 1z"/>
<path d="M15380 6108 c-58 -40 -75 -72 -75 -141 0 -104 58 -160 166 -160 104
0 169 62 169 162 0 104 -59 161 -166 161 -47 0 -69 -5 -94 -22z"/>
<path d="M11912 5523 c-5 -10 -12 -51 -16 -92 -3 -41 -18 -123 -31 -183 -27
-120 -23 -148 20 -148 30 0 50 20 81 84 76 152 194 191 560 184 l181 -3 -459
-650 c-252 -357 -461 -660 -465 -673 -13 -52 -16 -52 456 -52 240 0 518 -5
619 -12 160 -10 184 -10 197 3 10 9 19 50 25 105 6 49 19 118 30 154 30 102
35 144 17 159 -33 27 -60 9 -107 -71 -53 -90 -91 -133 -142 -159 -65 -33 -199
-50 -462 -56 -213 -5 -248 -4 -241 8 5 8 209 301 453 653 244 351 448 650 453
664 8 19 6 29 -6 41 -14 14 -79 17 -518 22 -433 5 -509 8 -551 22 -62 22 -83
21 -94 0z"/>
<path d="M7134 5520 c-71 -15 -201 -70 -260 -110 -159 -108 -287 -288 -339
-475 -23 -84 -31 -286 -15 -382 26 -164 93 -297 204 -409 80 -80 166 -132 276
-166 106 -33 312 -33 415 -1 82 26 174 79 228 131 l37 36 0 -254 c0 -140 -4
-293 -10 -340 -8 -74 -13 -88 -36 -109 -27 -22 -31 -23 -143 -16 -134 8 -155
0 -153 -55 2 -61 15 -66 180 -61 244 7 402 6 509 -3 114 -10 153 -1 171 40 14
30 1 69 -26 76 -11 3 -41 3 -66 1 -83 -10 -112 2 -138 55 l-23 47 -3 871 c-3
923 -3 927 44 1047 20 52 13 79 -21 86 -10 2 -68 -22 -129 -54 l-111 -57 -75
36 c-117 55 -178 68 -335 72 -77 1 -158 -1 -181 -6z m307 -162 c94 -47 147
-92 198 -171 l41 -62 0 -393 0 -393 -29 -43 c-66 -95 -157 -149 -283 -166
-268 -38 -497 141 -562 438 -21 92 -22 311 -2 402 38 176 135 322 255 385 76
39 105 45 207 42 93 -2 106 -5 175 -39z"/>
<path d="M10572 5511 c-352 -89 -593 -418 -592 -805 1 -161 40 -314 111 -432
45 -75 169 -191 248 -233 195 -103 498 -119 701 -38 101 41 170 88 254 173
174 175 256 393 242 644 -19 354 -203 600 -511 685 -95 26 -360 30 -453 6z
m244 -112 c188 -34 345 -190 412 -409 45 -148 53 -399 18 -530 -58 -209 -202
-355 -376 -379 -270 -36 -495 143 -581 464 -32 116 -32 365 -1 478 76 278 278
422 528 376z"/>
<path d="M15641 5484 c-57 -24 -147 -56 -200 -70 -108 -29 -141 -46 -141 -73
0 -28 30 -48 90 -60 71 -15 98 -33 121 -84 17 -39 19 -70 19 -400 l0 -358 -44
-69 c-78 -120 -197 -194 -331 -207 -145 -13 -274 53 -333 172 -44 90 -47 128
-47 575 0 396 2 430 21 500 11 41 18 83 16 93 -6 27 -54 21 -136 -18 -40 -20
-126 -49 -191 -66 -120 -30 -155 -48 -155 -79 0 -24 19 -38 77 -55 105 -31
106 -35 113 -500 7 -415 11 -453 60 -560 76 -167 231 -255 450 -255 177 0 299
49 421 169 l77 76 7 -55 c15 -120 72 -210 132 -210 14 0 64 22 112 49 47 28
122 67 166 88 62 29 82 44 89 66 8 21 6 31 -6 44 -15 14 -25 15 -93 3 -72 -12
-78 -12 -103 7 -57 42 -57 40 -60 516 -3 453 5 639 33 717 36 102 -2 112 -164
44z"/>
<path d="M9177 3382 c-30 -6 -20 -38 14 -48 18 -5 40 -20 51 -34 10 -14 87
-191 171 -394 138 -333 173 -403 192 -384 3 3 71 175 150 381 79 207 151 388
160 401 10 16 30 28 51 32 24 4 34 12 34 25 0 21 7 20 -149 20 -63 0 -119 -5
-124 -10 -14 -14 1 -31 29 -31 41 0 64 -18 64 -50 0 -27 -184 -556 -200 -573
-9 -11 -240 543 -240 577 0 27 24 46 59 46 24 0 37 18 23 32 -9 9 -247 17
-285 10z"/>
<path d="M14390 3382 c-5 -2 -10 -12 -10 -23 0 -15 7 -19 33 -19 22 0 41 -8
53 -21 18 -19 19 -42 22 -308 5 -391 -1 -425 -69 -426 -27 0 -34 -4 -34 -20 0
-19 7 -20 155 -20 148 0 155 1 155 20 0 16 -7 20 -34 20 -23 1 -39 8 -52 24
-17 21 -19 42 -19 192 l0 169 91 0 c101 0 129 -10 129 -44 0 -13 6 -29 14 -35
20 -17 36 15 36 71 0 24 4 58 9 76 13 45 -10 54 -48 18 -26 -25 -33 -26 -129
-26 l-102 0 0 146 0 146 118 -4 c129 -5 170 -18 190 -63 7 -15 18 -25 25 -22
16 5 33 125 19 139 -9 9 -526 18 -552 10z"/>
<path d="M15160 3373 c-49 -18 -66 -75 -32 -106 25 -22 75 -21 95 1 20 22 22
75 5 90 -18 14 -51 21 -68 15z"/>
<path d="M11972 3268 c-5 -7 -13 -24 -17 -38 -16 -54 -51 -103 -87 -121 -21
-11 -38 -24 -38 -29 0 -12 34 -30 58 -30 19 0 20 -10 24 -202 4 -225 14 -265
69 -293 65 -34 218 -1 227 49 7 34 -14 40 -63 16 -54 -26 -87 -21 -112 17 -15
23 -19 57 -22 220 l-3 193 95 0 c99 0 113 6 102 40 -6 18 -15 20 -101 20 l-94
0 0 85 c0 66 -3 85 -14 85 -7 0 -18 -6 -24 -12z"/>
<path d="M12392 3268 c-5 -7 -13 -24 -17 -38 -16 -54 -51 -103 -87 -121 -21
-11 -38 -24 -38 -29 0 -12 34 -30 58 -30 19 0 20 -10 24 -202 4 -225 14 -265
69 -293 65 -34 218 -1 227 49 7 34 -14 40 -63 16 -54 -26 -87 -21 -112 17 -15
23 -19 57 -22 220 l-3 193 95 0 c99 0 113 6 102 40 -6 18 -15 20 -101 20 l-94
0 0 85 c0 66 -3 85 -14 85 -7 0 -18 -6 -24 -12z"/>
<path d="M10206 3110 c-69 -27 -108 -66 -104 -105 3 -26 8 -30 35 -33 28 -3
36 2 68 46 41 58 79 77 131 67 63 -11 104 -75 104 -161 l0 -31 -73 5 c-204 13
-338 -107 -282 -253 26 -70 71 -99 161 -103 81 -5 131 8 173 44 l29 24 21 -35
c29 -50 51 -46 155 28 27 19 12 38 -24 30 -56 -11 -60 1 -60 191 0 151 -2 176
-20 210 -34 67 -89 94 -195 95 -46 0 -87 -7 -119 -19z m201 -272 l33 -12 0
-82 c0 -77 -2 -84 -26 -103 -37 -29 -96 -45 -138 -37 -72 14 -115 125 -73 189
33 51 129 72 204 45z"/>
<path d="M10838 3120 c-79 -24 -127 -100 -108 -171 17 -61 55 -94 179 -157
125 -63 152 -91 136 -138 -16 -43 -56 -66 -112 -66 -67 0 -105 22 -142 82 -25
40 -36 51 -54 48 -33 -5 -49 -45 -32 -79 33 -63 109 -99 209 -99 133 0 216 64
216 166 0 86 -46 136 -181 197 -133 61 -170 112 -113 156 18 14 41 21 72 21
40 0 50 -5 83 -40 42 -44 67 -50 94 -20 17 18 17 21 1 46 -35 53 -161 81 -248
54z"/>
<path d="M11386 3115 c-47 -17 -83 -42 -109 -77 -25 -34 -9 -68 32 -68 23 0
36 10 65 50 50 70 96 85 160 55 41 -20 62 -57 70 -125 l7 -55 -103 0 c-87 -1
-110 -4 -150 -24 -53 -26 -104 -78 -114 -117 -10 -40 2 -114 23 -142 43 -57
67 -67 166 -67 87 0 95 2 140 32 42 29 48 31 54 15 10 -28 35 -52 54 -52 16 0
55 22 113 63 30 21 11 39 -31 31 -25 -5 -38 -3 -44 7 -5 8 -9 86 -9 174 -1
212 -17 256 -105 296 -49 23 -162 25 -219 4z m189 -279 l35 -15 0 -74 c0 -67
-3 -77 -26 -101 -28 -27 -79 -46 -127 -46 -42 0 -93 54 -102 108 -17 105 105
176 220 128z"/>
<path d="M12846 3110 c-69 -27 -108 -66 -104 -105 3 -26 8 -30 35 -33 28 -3
36 2 68 46 41 58 79 77 131 67 63 -11 104 -75 104 -161 l0 -31 -73 5 c-204 13
-338 -107 -282 -253 26 -70 71 -99 161 -103 81 -5 131 8 173 44 l29 24 21 -35
c29 -50 51 -46 155 28 27 19 12 38 -24 30 -56 -11 -60 1 -60 191 0 151 -2 176
-20 210 -34 67 -89 94 -195 95 -46 0 -87 -7 -119 -19z m201 -272 l33 -12 0
-82 c0 -77 -2 -84 -26 -103 -37 -29 -96 -45 -138 -37 -72 14 -115 125 -73 189
33 51 129 72 204 45z"/>
<path d="M13475 3118 c-11 -7 -47 -19 -80 -29 -70 -19 -83 -41 -33 -55 54 -16
59 -37 56 -241 -3 -199 -6 -207 -61 -208 -25 0 -32 -4 -32 -20 0 -19 7 -20
145 -20 138 0 145 1 145 20 0 16 -7 20 -34 21 -55 2 -61 19 -61 185 0 166 8
198 64 247 67 59 160 50 201 -18 18 -32 20 -52 20 -212 0 -118 -4 -181 -11
-188 -7 -7 -27 -12 -45 -13 -27 -2 -34 -6 -34 -22 0 -19 7 -20 138 -20 76 0
143 2 149 6 6 4 8 15 4 24 -4 12 -14 16 -32 12 -18 -3 -33 2 -45 14 -17 17
-19 36 -19 187 0 189 -12 251 -57 294 -37 36 -73 48 -139 48 -64 0 -104 -17
-157 -69 l-38 -36 7 53 c6 47 5 52 -12 52 -11 0 -28 -6 -39 -12z"/>
<path d="M15180 3115 c-14 -8 -46 -19 -72 -25 -67 -17 -79 -35 -35 -54 56 -23
59 -37 55 -241 -3 -201 -6 -209 -61 -210 -25 0 -32 -4 -32 -20 0 -19 7 -20
145 -20 138 0 145 1 145 20 0 16 -7 20 -32 20 -57 1 -58 6 -58 243 0 119 3
236 8 260 7 39 6 42 -15 42 -13 -1 -34 -7 -48 -15z"/>
<path d="M15540 3120 c-8 -6 -45 -19 -82 -30 -38 -12 -68 -25 -68 -30 0 -6 17
-18 37 -27 28 -13 40 -26 44 -48 15 -70 5 -373 -13 -390 -4 -4 -21 -7 -40 -8
-26 -2 -33 -6 -33 -22 0 -18 8 -19 150 -21 84 0 156 3 163 9 23 18 -7 37 -58
37 -34 0 -50 4 -54 16 -3 9 -6 87 -6 173 0 154 1 159 26 197 53 80 93 93 137
43 25 -29 29 -30 50 -17 26 18 35 72 16 95 -38 45 -127 32 -190 -29 l-41 -40
7 51 c6 45 5 51 -12 51 -10 0 -25 -5 -33 -10z"/>
<path d="M16026 3110 c-69 -27 -108 -66 -104 -105 3 -26 8 -30 35 -33 28 -3
36 2 68 46 41 58 79 77 131 67 63 -11 104 -75 104 -161 l0 -31 -73 5 c-204 13
-338 -107 -282 -253 26 -70 71 -99 161 -103 81 -5 131 8 173 44 l29 24 21 -35
c29 -50 51 -46 155 28 27 19 12 38 -24 30 -56 -11 -60 1 -60 191 0 151 -2 176
-20 210 -34 67 -89 94 -195 95 -46 0 -87 -7 -119 -19z m201 -272 l33 -12 0
-82 c0 -77 -2 -84 -26 -103 -37 -29 -96 -45 -138 -37 -72 14 -115 125 -73 189
33 51 129 72 204 45z"/>
<path d="M16655 3118 c-11 -7 -47 -19 -80 -29 -67 -18 -84 -42 -38 -54 53 -13
53 -14 53 -221 0 -180 -1 -195 -20 -214 -11 -11 -26 -17 -35 -14 -20 8 -48
-15 -36 -30 6 -7 62 -11 163 -11 146 0 153 1 153 20 0 17 -8 21 -55 25 l-55 5
-7 40 c-4 22 -7 96 -7 166 -1 121 0 126 28 171 47 75 108 102 131 58 19 -35
47 -43 70 -20 37 37 21 94 -33 113 -34 13 -108 -14 -149 -54 l-40 -38 6 49 c6
44 4 50 -11 50 -10 0 -27 -6 -38 -12z"/>
<path d="M2899 3032 c-98 -40 -193 -125 -230 -207 -9 -22 -23 -70 -29 -107
-10 -57 -9 -80 4 -140 30 -135 99 -221 226 -282 60 -29 73 -31 170 -31 99 0
110 2 172 33 163 80 253 257 218 427 -26 125 -108 233 -217 287 -60 29 -77 33
-167 35 -80 3 -111 -1 -147 -15z"/>
</g>
</svg>
